<svg xmlns="http://www.w3.org/2000/svg" viewBox="0 0 512 512">
  <defs>
    <linearGradient id="bg" x1="0%" y1="0%" x2="100%" y2="100%">
      <stop offset="0%" style="stop-color:#0f172a"/>
      <stop offset="100%" style="stop-color:#1e293b"/>
    </linearGradient>
    <linearGradient id="accent" x1="0%" y1="0%" x2="100%" y2="100%">
      <stop offset="0%" style="stop-color:#22d3ee"/>
      <stop offset="100%" style="stop-color:#3b82f6"/>
    </linearGradient>
  </defs>
  <rect width="512" height="512" rx="108" fill="url(#bg)"/>
  <!-- Stethoscope simplified -->
  <circle cx="256" cy="280" r="100" fill="none" stroke="url(#accent)" stroke-width="24"/>
  <path d="M180 240 L180 180 Q180 140 220 140 L250 140" fill="none" stroke="url(#accent)" stroke-width="24" stroke-linecap="round"/>
  <path d="M332 240 L332 180 Q332 140 292 140 L262 140" fill="none" stroke="url(#accent)" stroke-width="24" stroke-linecap="round"/>
  <circle cx="180" cy="140" r="24" fill="url(#accent)"/>
  <circle cx="332" cy="140" r="24" fill="url(#accent)"/>
  <circle cx="256" cy="380" r="32" fill="url(#accent)"/>
  <!-- Pulse line -->
  <polyline points="120,320 180,320 200,280 220,360 240,280 260,340 280,300 300,320 392,320" 
            fill="none" stroke="#22d3ee" stroke-width="8" stroke-linecap="round" stroke-linejoin="round" opacity="0.6"/>
</svg>
